<svg width="800" height="800" viewBox="0 0 800 800" fill="none" xmlns="http://www.w3.org/2000/svg">
<g clip-path="url(#clip0_219_136)">
<path d="M244.667 277.4C247.267 280 250.68 281.307 254.093 281.307C257.507 281.307 260.92 280 263.52 277.4C268.733 272.187 268.733 263.76 263.52 258.547C249.987 245 249.987 222.973 263.52 209.427C275.12 197.827 281.52 182.413 281.52 166.013C281.52 149.613 275.133 134.2 263.52 122.6C258.307 117.387 249.88 117.387 244.667 122.6C239.453 127.813 239.453 136.24 244.667 141.453C251.227 148.013 254.853 156.733 254.853 166.013C254.853 175.293 251.24 184.013 244.667 190.573C220.733 214.507 220.733 253.467 244.667 277.4Z" fill="url(#paint0_linear_219_136)"/>
<path d="M538 277.4C540.6 280 544.013 281.307 547.427 281.307C550.84 281.307 554.253 280 556.853 277.4C562.067 272.187 562.067 263.76 556.853 258.547C543.32 245 543.32 222.973 556.853 209.427C568.453 197.827 574.853 182.413 574.853 166.013C574.853 149.613 568.467 134.2 556.853 122.6C551.64 117.387 543.213 117.387 538 122.6C532.787 127.813 532.787 136.24 538 141.453C544.56 148.013 548.187 156.733 548.187 166.013C548.187 175.293 544.573 184.013 538 190.573C514.067 214.507 514.067 253.467 538 277.4Z" fill="url(#paint1_linear_219_136)"/>
<path d="M391.333 197.4C393.933 200 397.347 201.307 400.76 201.307C404.173 201.307 407.587 200 410.187 197.4C415.4 192.187 415.4 183.76 410.187 178.547C396.653 165 396.653 142.973 410.187 129.427C421.787 117.827 428.187 102.413 428.187 86.0134C428.187 69.6134 421.8 54.2001 410.187 42.6001C404.973 37.3867 396.547 37.3867 391.333 42.6001C386.12 47.8134 386.12 56.2401 391.333 61.4534C397.893 68.0134 401.52 76.7334 401.52 86.0134C401.52 95.2934 397.907 104.013 391.333 110.573C367.4 134.507 367.4 173.467 391.333 197.4Z" fill="url(#paint2_linear_219_136)"/>
<path d="M741.653 582.947C717.493 441.067 606.893 328.333 466.093 301.027C466.32 298.893 466.667 296.747 466.667 294.627C466.667 257.867 436.76 227.96 400 227.96C363.24 227.96 333.333 257.867 333.333 294.627C333.333 296.747 333.667 298.893 333.907 301.027C193.107 328.333 82.5067 441.067 58.3467 582.947C30.48 598.72 0 621.933 0 647.973C0 715.773 206.827 761.307 400 761.307C593.173 761.307 800 715.773 800 647.973C800 621.933 769.52 598.72 741.653 582.947ZM360.08 296.933C360.027 296.16 360 295.387 360 294.64C360 272.587 377.947 254.64 400 254.64C422.053 254.64 440 272.587 440 294.64C440 295.4 439.973 296.16 439.92 296.933C439.293 296.867 438.667 296.84 438.053 296.773C433.467 296.267 428.853 295.907 424.213 295.587C422.507 295.467 420.813 295.293 419.107 295.2C412.787 294.853 406.427 294.653 400.013 294.653C393.6 294.653 387.24 294.853 380.92 295.2C379.213 295.293 377.52 295.467 375.813 295.587C371.173 295.907 366.56 296.28 361.973 296.773C361.333 296.84 360.707 296.853 360.08 296.933ZM335.013 355.133C356.107 350.387 377.907 347.973 399.813 347.973C399.867 347.973 399.933 347.973 400 347.973C407.36 347.973 413.333 353.947 413.333 361.32C413.333 368.68 407.36 374.64 400 374.64C399.947 374.64 399.88 374.64 399.827 374.64C379.88 374.64 360.067 376.827 340.88 381.147C339.893 381.373 338.907 381.467 337.933 381.467C331.84 381.467 326.333 377.267 324.933 371.067C323.32 363.88 327.827 356.747 335.013 355.133ZM255.333 386.627C261.68 382.88 269.84 384.973 273.6 391.307C277.36 397.653 275.267 405.827 268.92 409.573C206.08 446.8 160.293 514.387 146.44 590.373C145.267 596.8 139.653 601.307 133.333 601.307C132.533 601.307 131.733 601.24 130.933 601.08C123.693 599.76 118.88 592.827 120.2 585.573C135.44 502.107 185.96 427.733 255.333 386.627ZM400 734.64C172.053 734.64 26.6667 677.72 26.6667 647.973C26.6667 642.867 32.9867 631.613 54.1867 616.933C54.1333 617.693 54.16 618.44 54.1067 619.2C53.6533 626.507 53.3333 633.867 53.3333 641.307V651.813L63.56 654.28C173.613 680.693 286.813 694.08 400 694.08C513.187 694.08 626.387 680.693 736.44 654.28L746.667 651.813V641.307C746.667 633.867 746.347 626.52 745.893 619.2C745.84 618.44 745.867 617.693 745.813 616.933C767.013 631.613 773.333 642.867 773.333 647.973C773.333 677.72 627.947 734.64 400 734.64Z" fill="url(#paint3_linear_219_136)"/>
</g>
<defs>
<linearGradient id="paint0_linear_219_136" x1="254.118" y1="118.69" x2="254.118" y2="281.307" gradientUnits="userSpaceOnUse">
<stop stop-color="#FF9601"/>
<stop offset="1" stop-color="#FF4D01"/>
</linearGradient>
<linearGradient id="paint1_linear_219_136" x1="547.452" y1="118.69" x2="547.452" y2="281.307" gradientUnits="userSpaceOnUse">
<stop stop-color="#FF9601"/>
<stop offset="1" stop-color="#FF4D01"/>
</linearGradient>
<linearGradient id="paint2_linear_219_136" x1="400.785" y1="38.6901" x2="400.785" y2="201.307" gradientUnits="userSpaceOnUse">
<stop stop-color="#FF9601"/>
<stop offset="1" stop-color="#FF4D01"/>
</linearGradient>
<linearGradient id="paint3_linear_219_136" x1="400" y1="227.96" x2="400" y2="761.307" gradientUnits="userSpaceOnUse">
<stop stop-color="#FF9601"/>
<stop offset="1" stop-color="#FF4D01"/>
</linearGradient>
<clipPath id="clip0_219_136">
<rect width="800" height="800" fill="white"/>
</clipPath>
</defs>
</svg>
